<svg id="visual" viewBox="0 0 900 600" width="900" height="600" xmlns="http://www.w3.org/2000/svg" xmlns:xlink="http://www.w3.org/1999/xlink" version="1.1"><rect x="0" y="0" width="900" height="600" fill="#FFFFFF"></rect><defs><linearGradient id="grad1_0" x1="33.3%" y1="0%" x2="100%" y2="100%"><stop offset="20%" stop-color="#61a565" stop-opacity="1"></stop><stop offset="80%" stop-color="#61a565" stop-opacity="1"></stop></linearGradient></defs><defs><linearGradient id="grad1_1" x1="33.3%" y1="0%" x2="100%" y2="100%"><stop offset="20%" stop-color="#61a565" stop-opacity="1"></stop><stop offset="80%" stop-color="#b0d2b0" stop-opacity="1"></stop></linearGradient></defs><defs><linearGradient id="grad1_2" x1="33.3%" y1="0%" x2="100%" y2="100%"><stop offset="20%" stop-color="#ffffff" stop-opacity="1"></stop><stop offset="80%" stop-color="#b0d2b0" stop-opacity="1"></stop></linearGradient></defs><defs><linearGradient id="grad2_0" x1="0%" y1="0%" x2="66.7%" y2="100%"><stop offset="20%" stop-color="#61a565" stop-opacity="1"></stop><stop offset="80%" stop-color="#61a565" stop-opacity="1"></stop></linearGradient></defs><defs><linearGradient id="grad2_1" x1="0%" y1="0%" x2="66.7%" y2="100%"><stop offset="20%" stop-color="#b0d2b0" stop-opacity="1"></stop><stop offset="80%" stop-color="#61a565" stop-opacity="1"></stop></linearGradient></defs><defs><linearGradient id="grad2_2" x1="0%" y1="0%" x2="66.7%" y2="100%"><stop offset="20%" stop-color="#b0d2b0" stop-opacity="1"></stop><stop offset="80%" stop-color="#ffffff" stop-opacity="1"></stop></linearGradient></defs><g transform="translate(900, 0)"><path d="M0 297.5C-11.8 295.1 -23.7 292.6 -35.2 289.9C-46.7 287.1 -58 284 -69.4 281.6C-80.8 279.2 -92.5 277.6 -104.3 274.9C-116 272.2 -127.9 268.5 -136.6 260.3C-145.3 252.2 -150.8 239.6 -160.8 232.9C-170.7 226.2 -185.1 225.5 -193 217.8C-200.9 210.1 -202.3 195.4 -211.1 187C-219.9 178.6 -236 176.5 -242.8 167.6C-249.5 158.7 -246.8 143 -249.7 131.1C-252.6 119.1 -261 110.9 -266.5 101.1C-272 91.3 -274.6 79.9 -279.6 68.9C-284.6 57.9 -291.9 47.3 -295.3 35.9C-298.6 24.4 -298.1 12.2 -297.5 0L0 0Z" fill="#d8e8d7"></path><path d="M0 198.3C-7.9 196.7 -15.8 195.1 -23.5 193.2C-31.2 191.4 -38.6 189.3 -46.3 187.7C-53.9 186.1 -61.7 185 -69.5 183.3C-77.4 181.5 -85.3 179 -91.1 173.5C-96.9 168.1 -100.6 159.7 -107.2 155.3C-113.8 150.8 -123.4 150.4 -128.6 145.2C-133.9 140.1 -134.9 130.3 -140.7 124.7C-146.6 119.1 -157.4 117.7 -161.9 111.7C-166.3 105.8 -164.6 95.3 -166.5 87.4C-168.4 79.4 -174 73.9 -177.7 67.4C-181.3 60.8 -183.1 53.3 -186.4 45.9C-189.7 38.6 -194.6 31.5 -196.9 23.9C-199.1 16.3 -198.7 8.1 -198.3 0L0 0Z" fill="#89bb8a"></path><path d="M0 99.2C-3.9 98.4 -7.9 97.5 -11.7 96.6C-15.6 95.7 -19.3 94.7 -23.1 93.9C-26.9 93.1 -30.8 92.5 -34.8 91.6C-38.7 90.7 -42.6 89.5 -45.5 86.8C-48.4 84.1 -50.3 79.9 -53.6 77.6C-56.9 75.4 -61.7 75.2 -64.3 72.6C-67 70 -67.4 65.1 -70.4 62.3C-73.3 59.5 -78.7 58.8 -80.9 55.9C-83.2 52.9 -82.3 47.7 -83.2 43.7C-84.2 39.7 -87 37 -88.8 33.7C-90.7 30.4 -91.5 26.6 -93.2 23C-94.9 19.3 -97.3 15.8 -98.4 12C-99.5 8.1 -99.4 4.1 -99.2 0L0 0Z" fill="#61a565"></path></g><g transform="translate(0, 600)"><path d="M0 -297.5C11.1 -289.6 22.3 -281.8 34 -279.9C45.7 -278.1 58 -282.3 69.2 -280.6C80.3 -278.9 90.2 -271.4 101.4 -267.4C112.6 -263.5 125.1 -263.1 136.2 -259.4C147.3 -255.7 157 -248.7 167 -242C177 -235.3 187.4 -228.9 195 -220.1C202.6 -211.2 207.4 -199.9 216.3 -191.6C225.2 -183.4 238 -178.3 244.8 -169C251.6 -159.6 252.2 -146 256.8 -134.8C261.3 -123.6 269.8 -114.8 274.9 -104.3C280 -93.7 281.7 -81.4 281.6 -69.4C281.5 -57.4 279.6 -45.7 281.9 -34.2C284.3 -22.7 290.9 -11.4 297.5 0L0 0Z" fill="#d8e8d7"></path><path d="M0 -198.3C7.4 -193.1 14.8 -187.9 22.7 -186.6C30.5 -185.4 38.7 -188.2 46.1 -187.1C53.5 -185.9 60.1 -180.9 67.6 -178.3C75.1 -175.6 83.4 -175.4 90.8 -173C98.2 -170.5 104.7 -165.8 111.3 -161.3C118 -156.8 124.9 -152.6 130 -146.7C135 -140.8 138.3 -133.2 144.2 -127.8C150.1 -122.3 158.7 -118.9 163.2 -112.7C167.7 -106.4 168.1 -97.3 171.2 -89.8C174.2 -82.4 179.9 -76.5 183.3 -69.5C186.7 -62.5 187.8 -54.3 187.7 -46.3C187.6 -38.3 186.4 -30.5 188 -22.8C189.5 -15.1 193.9 -7.6 198.3 0L0 0Z" fill="#89bb8a"></path><path d="M0 -99.2C3.7 -96.5 7.4 -93.9 11.3 -93.3C15.2 -92.7 19.3 -94.1 23.1 -93.5C26.8 -93 30.1 -90.5 33.8 -89.1C37.5 -87.8 41.7 -87.7 45.4 -86.5C49.1 -85.2 52.3 -82.9 55.7 -80.7C59 -78.4 62.5 -76.3 65 -73.4C67.5 -70.4 69.1 -66.6 72.1 -63.9C75.1 -61.1 79.3 -59.4 81.6 -56.3C83.9 -53.2 84.1 -48.7 85.6 -44.9C87.1 -41.2 89.9 -38.3 91.6 -34.8C93.3 -31.2 93.9 -27.1 93.9 -23.1C93.8 -19.1 93.2 -15.2 94 -11.4C94.8 -7.6 97 -3.8 99.2 0L0 0Z" fill="#61a565"></path></g></svg>