<svg id="visual" viewBox="0 0 960 540" width="960" height="540" xmlns="http://www.w3.org/2000/svg" xmlns:xlink="http://www.w3.org/1999/xlink" version="1.1"><rect x="0" y="0" width="960" height="540" fill="#FFFFFF"></rect><path d="M0 340L192 403L384 364L576 387L768 388L960 388L960 541L768 541L576 541L384 541L192 541L0 541Z" fill="#93f9b9"></path><path d="M0 420L192 380L384 427L576 374L768 366L960 382L960 541L768 541L576 541L384 541L192 541L0 541Z" fill="#78e0a5"></path><path d="M0 421L192 455L384 435L576 439L768 426L960 449L960 541L768 541L576 541L384 541L192 541L0 541Z" fill="#5cc792"></path><path d="M0 461L192 484L384 453L576 473L768 462L960 454L960 541L768 541L576 541L384 541L192 541L0 541Z" fill="#40af7f"></path><path d="M0 493L192 508L384 499L576 484L768 492L960 493L960 541L768 541L576 541L384 541L192 541L0 541Z" fill="#1d976c"></path></svg>