<svg id="visual" viewBox="0 0 960 540" width="960" height="540" xmlns="http://www.w3.org/2000/svg" xmlns:xlink="http://www.w3.org/1999/xlink" version="1.1"><rect x="0" y="0" width="960" height="540" fill="#FFFFFF"></rect><defs><linearGradient id="grad1_0" x1="43.8%" y1="100%" x2="100%" y2="0%"><stop offset="14.444444444444446%" stop-color="#1d976c" stop-opacity="1"></stop><stop offset="85.55555555555554%" stop-color="#1d976c" stop-opacity="1"></stop></linearGradient></defs><defs><linearGradient id="grad1_1" x1="43.8%" y1="100%" x2="100%" y2="0%"><stop offset="14.444444444444446%" stop-color="#1d976c" stop-opacity="1"></stop><stop offset="85.55555555555554%" stop-color="#99cbb3" stop-opacity="1"></stop></linearGradient></defs><defs><linearGradient id="grad1_2" x1="43.8%" y1="100%" x2="100%" y2="0%"><stop offset="14.444444444444446%" stop-color="#ffffff" stop-opacity="1"></stop><stop offset="85.55555555555554%" stop-color="#99cbb3" stop-opacity="1"></stop></linearGradient></defs><defs><linearGradient id="grad2_0" x1="0%" y1="100%" x2="56.3%" y2="0%"><stop offset="14.444444444444446%" stop-color="#1d976c" stop-opacity="1"></stop><stop offset="85.55555555555554%" stop-color="#1d976c" stop-opacity="1"></stop></linearGradient></defs><defs><linearGradient id="grad2_1" x1="0%" y1="100%" x2="56.3%" y2="0%"><stop offset="14.444444444444446%" stop-color="#99cbb3" stop-opacity="1"></stop><stop offset="85.55555555555554%" stop-color="#1d976c" stop-opacity="1"></stop></linearGradient></defs><defs><linearGradient id="grad2_2" x1="0%" y1="100%" x2="56.3%" y2="0%"><stop offset="14.444444444444446%" stop-color="#99cbb3" stop-opacity="1"></stop><stop offset="85.55555555555554%" stop-color="#ffffff" stop-opacity="1"></stop></linearGradient></defs><g transform="translate(960, 540)"><path d="M-297 0C-288.3 -35.6 -279.6 -71.3 -267.9 -111C-256.2 -150.7 -241.6 -194.5 -210 -210C-178.5 -225.6 -130 -212.9 -92.2 -222.7C-54.4 -232.4 -27.2 -264.7 0 -297L0 0Z" fill="#cce5d8"></path><path d="M-198 0C-192.2 -23.8 -186.4 -47.5 -178.6 -74C-170.8 -100.5 -161 -129.6 -140 -140C-119 -150.4 -86.7 -141.9 -61.5 -148.4C-36.3 -155 -18.1 -176.5 0 -198L0 0Z" fill="#64b18f"></path><path d="M-99 0C-96.1 -11.9 -93.2 -23.8 -89.3 -37C-85.4 -50.2 -80.5 -64.8 -70 -70C-59.5 -75.2 -43.3 -71 -30.7 -74.2C-18.1 -77.5 -9.1 -88.2 0 -99L0 0Z" fill="#1d976c"></path></g><g transform="translate(0, 0)"><path d="M297 0C285.8 34.6 274.7 69.2 263.3 109.1C251.9 148.9 240.4 194 210 210C179.6 226 130.4 213 92.2 222.7C54.1 232.3 27 264.7 0 297L0 0Z" fill="#cce5d8"></path><path d="M198 0C190.6 23.1 183.1 46.1 175.5 72.7C168 99.3 160.3 129.3 140 140C119.7 150.7 86.9 142 61.5 148.4C36.1 154.9 18 176.4 0 198L0 0Z" fill="#64b18f"></path><path d="M99 0C95.3 11.5 91.6 23.1 87.8 36.4C84 49.6 80.1 64.7 70 70C59.9 75.3 43.5 71 30.7 74.2C18 77.4 9 88.2 0 99L0 0Z" fill="#1d976c"></path></g></svg>